#!OML:ASF H:\Dans Jumps\Project 1\Capture day 1\Session 1\subject.ASF
:FULLY-SPECIFIED
:DEGREES
488
root 0.324244 17.2994 8.87674 -0.518374 -0.526376 -0.676086
lowerback 1.25937 0.714622 -0.625753
upperback 4.50237 0.9267 1.09301
thorax 3.8983 0.417892 1.49621
lowerneck -8.28535 -0.149873 -0.915386
upperneck 33.7427 -0.325286 0.985025
head 12.5372 -0.126902 0.500274
rclavicle -1.2424e-016 3.37934e-015
rhumerus -12.4711 -0.796167 -81.7554
rradius 40.8447
rwrist 26.8452
rhand -21.4929 -26.2607
rfingers 7.12502
rthumb 4.89844 -56.184
lclavicle -1.2424e-016 3.37934e-015
lhumerus -23.0621 -0.731177 84.0652
lradius 17.8981
lwrist 10.2431
lhand -25.5 -8.07689
lfingers 7.12502
lthumb 1.02868 21.9004
rfemur -20.4309 -1.02447 19.9046
rtibia 32.1491
rfoot -10.7441 -0.164849
rtoes 10.4508
lfemur -18.9621 2.89739 -17.1302
ltibia 28.2345
lfoot -6.8206 4.00911
ltoes -6.91236
489
root 0.326681 17.3152 8.92691 -0.452814 -0.555923 -0.64249
lowerback 1.19994 0.675468 -0.692483
upperback 4.45136 0.875405 1.09539
thorax 3.87943 0.390211 1.53529
lowerneck -8.36648 -0.090814 -0.844802
upperneck 33.7219 -0.229675 0.906786
head 12.5442 -0.0857722 0.469857
rclavicle -2.13694e-015 3.77691e-015
rhumerus -12.4797 -0.975746 -81.7765
rradius 40.865
rwrist 26.9431
rhand -21.5591 -26.2628
rfingers 7.12502
rthumb 4.83449 -56.1877
lclavicle -2.13694e-015 3.77691e-015
lhumerus -22.821 -0.112776 83.7513
lradius 17.5775
lwrist 9.71524
lhand -25.4036 -7.9843
lfingers 7.12502
lthumb 1.12177 21.9925
rfemur -20.1567 -1.06926 19.8642
rtibia 31.8462
rfoot -10.7709 -0.121744
rtoes 10.3857
lfemur -18.6275 3.11961 -17.1622
ltibia 27.7577
lfoot -6.70173 3.7115
ltoes -7.03114
490
root 0.329184 17.3297 8.9745 -0.417501 -0.585004 -0.626742
lowerback 1.18711 0.640076 -0.736079
upperback 4.42581 0.828589 1.10016
thorax 3.86096 0.365445 1.56354
lowerneck -8.49208 -0.0370109 -0.806669
upperneck 33.7499 -0.148583 0.87159
head 12.5817 -0.0497691 0.460223
rclavicle -4.91992e-015 -7.55382e-015
rhumerus -12.463 -1.18134 -81.8
rradius 40.8218
rwrist 27.1024
rhand -21.6659 -26.2334
rfingers 7.12502
rthumb 4.73133 -56.1606
lclavicle -4.91992e-015 -7.55382e-015
lhumerus -22.5562 0.481508 83.4586
lradius 17.3036
lwrist 9.22
lhand -25.3201 -7.8985
lfingers 7.12502
lthumb 1.20242 22.0779
rfemur -19.863 -1.10982 19.8425
rtibia 31.5532
rfoot -10.793 -0.0882441
rtoes 10.3004
lfemur -18.2829 3.35887 -17.1758
ltibia 27.3281
lfoot -6.65237 3.42538
ltoes -7.17457
491
root 0.331611 17.3434 9.01953 -0.390922 -0.615595 -0.626177
lowerback 1.20075 0.610986 -0.76034
upperback 4.41423 0.789733 1.10783
thorax 3.84208 0.345223 1.58393
lowerneck -8.63002 0.0079535 -0.799806
upperneck 33.81 -0.0856681 0.873852
head 12.6357 -0.0210785 0.468468
rclavicle -2.90723e-015 5.96354e-016
rhumerus -12.4389 -1.41611 -81.8216
rradius 40.7265
rwrist 27.3189
rhand -21.7699 -26.2316
rfingers 7.12502
rthumb 4.63095 -56.161
lclavicle -2.90723e-015 5.96354e-016
lhumerus -22.2897 1.03691 83.1954
lradius 17.0948
lwrist 8.76541
lhand -25.2494 -7.83775
lfingers 7.12502
lthumb 1.27073 22.1382
rfemur -19.5714 -1.14339 19.8387
rtibia 31.2668
rfoot -10.8103 -0.0688392
rtoes 10.2032
lfemur -17.9485 3.60074 -17.175
ltibia 26.9388
lfoot -6.65639 3.16853
ltoes -7.32051
492
root 0.333919 17.3565 9.06242 -0.35816 -0.643524 -0.636439
lowerback 1.2199 0.587096 -0.771508
upperback 4.41667 0.757551 1.11687
thorax 3.83463 0.328612 1.59862
lowerneck -8.77865 0.0452786 -0.805426
upperneck 33.8836 -0.0368719 0.89424
head 12.698 0.00207472 0.484295
rclavicle -8.94531e-016 -4.37326e-015
rhumerus -12.3954 -1.68274 -81.8429
rradius 40.5622
rwrist 27.5808
rhand -21.8852 -26.2499
rfingers 7.12502
rthumb 4.51964 -56.1816
lclavicle -8.94531e-016 -4.37326e-015
lhumerus -22.0083 1.50805 82.9736
lradius 16.9417
lwrist 8.39812
lhand -25.1982 -7.78032
lfingers 7.12502
lthumb 1.3201 22.1953
rfemur -19.2944 -1.17666 19.8482
rtibia 30.9836
rfoot -10.8225 -0.0607919
rtoes 10.0995
lfemur -17.6363 3.83373 -17.1664
ltibia 26.5785
lfoot -6.69449 2.94286
ltoes -7.43663
493
root 0.336085 17.3697 9.10332 -0.300209 -0.659115 -0.641247
lowerback 1.22945 0.566866 -0.786057
upperback 4.41684 0.730434 1.12297
thorax 3.83009 0.314463 1.6124
lowerneck -8.90802 0.0735141 -0.806727
upperneck 33.9626 -0.00227414 0.914639
head 12.7588 0.0195195 0.497632
rclavicle 1.01877e-015 2.78299e-015
rhumerus -12.3706 -1.97933 -81.8599
rradius 40.3536
rwrist 27.8767
rhand -22.0145 -26.2835
rfingers 7.12502
rthumb 4.39473 -56.2179
lclavicle 1.01877e-015 2.78299e-015
lhumerus -21.7317 1.90001 82.7934
lradius 16.8424
lwrist 8.10628
lhand -25.1582 -7.71404
lfingers 7.12502
lthumb 1.35873 22.2614
rfemur -19.0515 -1.22297 19.8524
rtibia 30.7022
rfoot -10.8305 -0.0563968
rtoes 10.01
lfemur -17.3659 4.04519 -17.1703
ltibia 26.2381
lfoot -6.7443 2.7512
ltoes -7.53996
